<svg xmlns="http://www.w3.org/2000/svg" width="280" height="140" viewBox="0 0 280 140">
  <defs>
    <style>
      .cls-1 {
        fill: #fff;
        fill-rule: evenodd;
      }
    </style>
  </defs>
  <path id="r" data-name="r" fill="#fff" class="right" d="M64.156,92.97h74c5.33-.044,6.839,1.6,6.843,5.541,0,5.846,0,14.887,0,19.875,0.09,3.234,3.423,1.544,4.242.868l68-44.013c1.038-.574,1.633-6.152-0.119-7.71l-67.539-45.45c-1.339-1.134-4.61-.815-4.579,1.918,0,5.485,0,14.259,0,20.211-0.064,3.216-1.791,5.883-6.914,5.819H63.933c-0.182,0-.358.016-0.529,0.015-1.1-.006-4.394,1.87-4.419,3.888V88.116C58.937,89.39,62.251,92.97,64.156,92.97Z"/>
</svg>
